<svg xmlns="http://www.w3.org/2000/svg" viewBox="0 0 826 256" width="826" height="256" role="img"><title>oow</title><path fill="#E6E8EE" fill-rule="evenodd" d="M8 248 L8 68 L128 68 L128 98 L38 98 L38 218 L158 218 L158 128 L188 128 L188 248 Z"/><path fill="#A78BFA" fill-rule="evenodd" d="M188 68 L188 8 L248 8 L248 68 Z"/><path fill="#E6E8EE" fill-rule="evenodd" d="M698 218 L668 218 L668 98 L698 98 Z M428 218 L428 248 L338 248 L338 218 L308 218 L308 128 L338 128 L338 98 L428 98 L428 128 L338 128 L338 218 Z M428 218 L428 128 L458 128 L458 218 Z M608 98 L608 128 L518 128 L518 218 L608 218 L608 128 L638 128 L638 218 L608 218 L608 248 L518 248 L518 218 L488 218 L488 128 L518 128 L518 98 Z M818 218 L788 218 L788 248 L758 248 L758 218 L728 218 L728 158 L758 158 L758 218 L788 218 L788 98 L818 98 Z M698 218 L728 218 L728 248 L698 248 Z"/></svg>
